<?xml version="1.0" encoding="utf-8"?>
<!-- Svg Vector Icons : http://www.onlinewebfonts.com/icon -->
<!DOCTYPE svg PUBLIC "-//W3C//DTD SVG 1.1//EN" "http://www.w3.org/Graphics/SVG/1.1/DTD/svg11.dtd">
<svg version="1.1" xmlns="http://www.w3.org/2000/svg" xmlns:xlink="http://www.w3.org/1999/xlink" x="0px" y="0px" viewBox="0 0 256 256" enable-background="new 0 0 256 256" xml:space="preserve">
<metadata> Svg Vector Icons : http://www.onlinewebfonts.com/icon </metadata>
<g> <path fill="#000000" d="M10,120c0-33.3,0-45.9,0-79.2C10,11.9,26,10,41.5,10h125.9c24.3,0,31.8,8.3,31.8,31.5v15.7 c0,12.4-15.8,11-15.8,0V41.5c0-11.7-3.8-15.7-16-15.7H41.5c-13,0-15.7,1.8-15.7,15.7v157.4c0,8.6,4.7,15.7,15.7,15.7 c19.1,0,12.4,0,31.5,0c9.6,0,10.3,15.7,0,15.7c-10.3,0-18.1,0.1-37.4,0c-11.4,0-20.8-6.8-24.1-17.2c-0.9-2.9-1.3-6.1-1.3-9.2 C10,170.7,10,153.2,10,120"/> <path fill="#000000" d="M167.2,246c-43.4,0-78.5-35.2-78.5-78.7c0-43.5,35.3-78.7,78.8-78.6s78.6,35.3,78.5,78.9 C246,211,210.7,246,167.2,246 M167.4,104.5c-34.5-0.1-62.9,28.2-62.9,62.7c-0.1,34.6,28,62.9,62.5,63c34.7,0.1,63.1-28,63.2-62.4 C230.3,132.9,202.2,104.6,167.4,104.5 M151.6,57.1c12.5,0,10.8,15.9,0,15.9H57.2c-11.8,0-11.3-15.9,0-15.9 C88.2,57.1,139.6,57.1,151.6,57.1z M72.9,104.3c12.5,0,10.8,15.9,0,15.9H57.2c-11.8,0-11.3-15.9,0-15.9 C88.2,104.3,60.9,104.3,72.9,104.3z"/> <path fill="#000000" d="M205.9,138c-3.6-3.6-9.3-3.6-12.9,0l-39.3,39.3l-12-12c-3.6-3.6-9.3-3.6-12.9,0c-3.6,3.6-3.6,9.3,0,12.9 l18.5,18.5c1.8,1.8,4.1,2.7,6.4,2.7c2.3,0,4.7-0.9,6.4-2.7c0.2-0.2,0.5-0.5,0.7-0.8c0.3-0.2,0.5-0.4,0.8-0.7l44.3-44.3 C209.5,147.4,209.5,141.6,205.9,138z"/></g>
</svg>