<?xml version="1.0" encoding="utf-8"?>
<!-- Svg Vector Icons : http://www.onlinewebfonts.com/icon -->
<!DOCTYPE svg PUBLIC "-//W3C//DTD SVG 1.1//EN" "http://www.w3.org/Graphics/SVG/1.1/DTD/svg11.dtd">
<svg version="1.1" xmlns="http://www.w3.org/2000/svg" xmlns:xlink="http://www.w3.org/1999/xlink" x="0px" y="0px" viewBox="0 0 256 256" enable-background="new 0 0 256 256" xml:space="preserve">
<metadata> Svg Vector Icons : http://www.onlinewebfonts.com/icon </metadata>
<g><g><path fill="#000000" d="M82.4,134.4c28.5,0,51.7-23.2,51.7-51.7s-23.2-51.7-51.7-51.7c-28.5,0-51.7,23.2-51.7,51.7C30.7,111.3,53.9,134.4,82.4,134.4z M82.4,43.1c21.9,0,39.7,17.8,39.7,39.7c0,21.9-17.8,39.7-39.7,39.7c-21.9,0-39.7-17.8-39.7-39.7C42.7,60.9,60.5,43.1,82.4,43.1z"/><path fill="#000000" d="M189.3,144.4c18.6,0,33.7-15.1,33.7-33.7S207.9,77,189.3,77s-33.7,15.1-33.7,33.7S170.7,144.4,189.3,144.4z M189.3,89c12,0,21.7,9.8,21.7,21.7s-9.8,21.7-21.7,21.7s-21.7-9.8-21.7-21.7C167.6,98.7,177.3,89,189.3,89z"/><path fill="#000000" d="M81.9,146.2c-39.6,0-71.9,32.2-71.9,71.9c0,0.2,0,0.5,0,0.7h0l0,0c0,3.3,2.7,6,6,6c3.3,0,6-2.7,6-6c0,0,0-0.1,0-0.1c0-0.2,0-0.4,0-0.6c0-33,26.9-59.9,59.9-59.9c33,0,59.9,26.9,59.9,59.9c0,0.2,0,0.5,0,0.7h0l0,0c0,3.3,2.7,6,6,6c3.3,0,6-2.7,6-6c0,0,0,0,0-0.1c0-0.2,0-0.5,0-0.7C153.8,178.4,121.5,146.2,81.9,146.2z"/><path fill="#000000" d="M245.9,218.8c0-0.7,0.1-1.3,0.1-2c0-32.6-26.5-59.2-59.2-59.2c-12.7,0-24.4,4-34,10.8l0,0.1c-1.2,1.1-2,2.6-2,4.4c0,3.3,2.7,6,6,6c1.2,0,2.3-0.5,3.2-1.1l0,0.1c7.6-5.2,16.8-8.3,26.7-8.3c26,0,47.2,21.2,47.2,47.2c0,0.7-0.1,1.3-0.1,2h0c0,0,0,0.1,0,0.1c0,3.3,2.7,6,6,6c3.3,0,6-2.7,6-6C245.9,218.9,245.9,218.8,245.9,218.8L245.9,218.8L245.9,218.8z"/></g></g>
</svg>